<?xml version="1.0" encoding="utf-8"?>
<!-- Generator: Adobe Illustrator 22.0.1, SVG Export Plug-In . SVG Version: 6.00 Build 0)  -->
<svg version="1.1" id="Layer_1" xmlns="http://www.w3.org/2000/svg" xmlns:xlink="http://www.w3.org/1999/xlink" x="0px" y="0px"
	 viewBox="0 0 317.2 106.1" style="enable-background:new 0 0 317.2 106.1;" xml:space="preserve">
<style type="text/css">
	.st0{fill:#242E51;}
	.st1{fill:#FFFFFF;}
</style>
<g>
	<path class="st0" d="M278.9,106.1L32.1,97.7C15.8,97.1,2.6,84.3,1.6,68L0.1,43.6C-1,25.8,12.7,10.6,30.5,9.9L284.4,0
		C304-0.8,319.6,16.3,317,35.8l-5.7,42.7C309.2,94.8,295.1,106.7,278.9,106.1z"/>
	<g>
		<path class="st1" d="M41.3,60.2c1-0.7,1.8-1,2.4-1c1,0,2.1,0.8,3.5,2.5c0.7,0.9,1.1,1.8,1.1,2.5c0,1.2-0.9,2.3-2.6,3.4
			c-1.8,1.3-4,1.9-6.7,1.9c-1.4,0-2.9-0.3-4.4-0.8c-1.5-0.6-2.9-1.3-4.2-2.4c-1.3-1-2.4-2.4-3.2-4.1c-0.8-1.7-1.2-3.6-1.2-5.7
			c0-2,0.4-3.9,1.2-5.6c0.8-1.7,1.9-3,3.2-4c1.3-1,2.7-1.8,4.2-2.3s2.9-0.8,4.3-0.8c1.2,0,2.4,0.2,3.5,0.5s2,0.7,2.5,1l0.8,0.5
			c0.6,0.4,1,0.7,1.3,0.9c0.3,0.2,0.6,0.5,0.9,0.9s0.4,0.8,0.4,1.3c0,0.8-0.3,1.7-1,2.7c-1.1,1.8-2.2,2.6-3.3,2.6
			c-0.6,0-1.5-0.3-2.6-1.1c-0.6-0.5-1.4-0.8-2.5-0.8c-1,0-2,0.4-2.9,1.1c-0.9,0.8-1.4,1.8-1.4,3.1c0,1.4,0.4,2.4,1.3,3.2
			c0.9,0.7,1.8,1.1,2.9,1.1c0.5,0,1-0.1,1.4-0.2s0.7-0.3,0.9-0.4L41.3,60.2z"/>
		<path class="st1" d="M63.1,43.5c3.5,0,6.6,1.2,9.2,3.7s4,5.6,4,9.4c0,2.6-0.7,5-2.1,7c-1.4,2.1-3,3.6-5,4.5c-2,1-4,1.5-6,1.5
			c-2.1,0-4.2-0.5-6.2-1.6s-3.6-2.6-5-4.6s-2-4.3-2-6.8c0-3.8,1.3-7,4-9.4C56.7,44.8,59.7,43.5,63.1,43.5z M60,60.1
			c1,0.8,2.1,1.2,3.1,1.2c1,0,2.1-0.4,3.1-1.2c1.1-0.8,1.6-2,1.6-3.5s-0.5-2.7-1.5-3.5S64.2,52,63,52c-1.1,0-2.1,0.4-3.1,1.2
			c-1,0.8-1.5,2-1.5,3.5C58.5,58.2,59,59.4,60,60.1z"/>
		<path class="st1" d="M99.2,44.1c1,0,1.8,0.1,2.4,0.3s1,0.5,1.3,1c0.2,0.5,0.4,0.9,0.4,1.3s0.1,0.9,0.1,1.6V65c0,0.7,0,1.3-0.1,1.6
			s-0.2,0.8-0.4,1.2c-0.2,0.5-0.7,0.8-1.3,1c-0.6,0.2-1.4,0.3-2.4,0.3c-1.4,0-2.4-0.2-3-0.6s-0.9-1.1-1-1.9
			c-1.2,1.7-3.1,2.5-5.7,2.5c-2.9,0-5.5-1.3-7.8-3.8c-2.4-2.5-3.5-5.5-3.5-8.8s1.2-6.2,3.6-8.7s5-3.7,7.8-3.7c1.1,0,2.1,0.2,3,0.6
			s1.5,0.7,1.9,1.1s0.6,0.7,0.9,1c0.1-0.9,0.4-1.6,1-2C96.7,44.3,97.7,44.1,99.2,44.1z M90.7,60.8c1.1,0,2.1-0.4,2.9-1.3
			s1.2-1.8,1.2-2.9c0-1-0.4-2-1.1-2.9s-1.8-1.3-3-1.3s-2.3,0.4-3,1.3c-0.8,0.9-1.2,1.9-1.2,2.9s0.4,2,1.2,2.8
			C88.4,60.4,89.5,60.8,90.7,60.8z"/>
		<path class="st1" d="M121.2,60.2c1-0.7,1.8-1,2.4-1c1,0,2.1,0.8,3.5,2.5c0.7,0.9,1.1,1.8,1.1,2.5c0,1.2-0.9,2.3-2.6,3.4
			c-1.8,1.3-4,1.9-6.7,1.9c-1.4,0-2.9-0.3-4.4-0.8c-1.5-0.6-2.9-1.3-4.2-2.4c-1.3-1-2.4-2.4-3.2-4.1c-0.8-1.7-1.2-3.6-1.2-5.7
			c0-2,0.4-3.9,1.2-5.6c0.8-1.7,1.9-3,3.2-4c1.3-1,2.7-1.8,4.2-2.3s2.9-0.8,4.3-0.8c1.2,0,2.4,0.2,3.5,0.5s2,0.7,2.5,1l0.8,0.5
			c0.6,0.4,1,0.7,1.3,0.9c0.3,0.2,0.6,0.5,0.9,0.9c0.3,0.4,0.4,0.8,0.4,1.3c0,0.8-0.3,1.7-1,2.7c-1.1,1.8-2.2,2.6-3.3,2.6
			c-0.6,0-1.5-0.3-2.6-1.1c-0.6-0.5-1.4-0.8-2.5-0.8c-1,0-2,0.4-2.9,1.1c-0.9,0.8-1.4,1.8-1.4,3.1c0,1.4,0.4,2.4,1.3,3.2
			c0.9,0.7,1.8,1.1,2.9,1.1c0.5,0,1-0.1,1.4-0.2s0.7-0.3,0.9-0.4L121.2,60.2z"/>
		<path class="st1" d="M144.3,44.2c3.2,0,5.8,1.2,7.9,3.6s3.2,5.4,3.2,8.9v8.4c0,0.7,0,1.3-0.1,1.6c0,0.4-0.2,0.8-0.4,1.2
			c-0.2,0.5-0.7,0.8-1.3,1c-0.6,0.2-1.4,0.3-2.4,0.3s-1.8-0.1-2.4-0.3c-0.6-0.2-1-0.5-1.3-1s-0.4-0.9-0.5-1.3c0-0.4-0.1-1-0.1-1.7
			v-8.4c0-1.3-0.4-2.3-1.1-3.1c-0.7-0.7-1.7-1.1-2.8-1.1c-1.1,0-2.1,0.3-3,1s-1.4,1.5-1.5,2.3v9.3c0,0.7,0,1.3-0.1,1.6
			c0,0.4-0.2,0.8-0.4,1.2c-0.2,0.5-0.7,0.8-1.3,1c-0.6,0.2-1.4,0.3-2.4,0.3s-1.8-0.1-2.4-0.3c-0.6-0.2-1-0.5-1.3-1
			c-0.2-0.5-0.4-0.9-0.4-1.2c0-0.3-0.1-0.9-0.1-1.7V36.5c0-0.7,0-1.3,0.1-1.6s0.2-0.8,0.4-1.2c0.2-0.5,0.7-0.8,1.3-1
			s1.4-0.3,2.4-0.3s1.8,0.1,2.4,0.3c0.6,0.2,1,0.5,1.3,1c0.2,0.5,0.4,0.9,0.4,1.3s0.1,0.9,0.1,1.6v10.5
			C140.3,45.2,142.1,44.2,144.3,44.2z"/>
		<path class="st1" d="M173.3,44.2c0.7,0,1.3,0,1.6,0.1c0.4,0.1,0.8,0.2,1.2,0.5s0.8,0.7,1,1.3c0.2,0.6,0.3,1.4,0.3,2.4
			s-0.1,1.7-0.3,2.3c-0.2,0.6-0.5,1-1,1.3c-0.4,0.3-0.9,0.4-1.3,0.5s-0.9,0.1-1.6,0.1l-3.1-0.2v12.8c0,0.7,0,1.2-0.1,1.6
			s-0.2,0.8-0.5,1.3c-0.2,0.5-0.7,0.8-1.3,1c-0.6,0.2-1.4,0.3-2.4,0.3s-1.8-0.1-2.4-0.3c-0.6-0.2-1-0.5-1.3-1s-0.4-0.9-0.5-1.3
			s-0.1-0.9-0.1-1.7V52.6h-1.4c-0.4,0-0.8-0.1-1-0.2c-0.3-0.1-0.5-0.3-0.8-0.5c-0.3-0.3-0.5-0.7-0.6-1.2c-0.1-0.6-0.2-1.3-0.2-2.1
			c0-2.6,0.9-3.9,2.8-3.9h1.6v-2.5c0-2.5,0.9-4.7,2.6-6.7s4.3-3,7.6-3c0.7,0,1.3,0,1.6,0.1c0.4,0,0.8,0.2,1.3,0.4
			c0.5,0.2,0.8,0.7,1,1.3c0.2,0.6,0.3,1.4,0.3,2.4c0,0.8-0.1,1.5-0.2,2c-0.2,0.6-0.4,1-0.6,1.2c-0.2,0.3-0.5,0.5-1,0.6
			c-0.4,0.1-0.8,0.2-1.1,0.2c-0.3,0-0.8,0-1.4,0c-1.2,0-1.8,0.4-1.8,1.2v2.6L173.3,44.2z M184.4,40.7c-1,0-1.8-0.1-2.4-0.3
			s-1-0.5-1.3-1c-0.2-0.5-0.4-0.9-0.4-1.3s-0.1-0.9-0.1-1.6s0-1.3,0.1-1.6c0-0.4,0.2-0.8,0.4-1.2c0.2-0.5,0.7-0.8,1.3-1
			s1.4-0.3,2.4-0.3s1.8,0.1,2.4,0.3c0.6,0.2,1,0.5,1.3,1c0.2,0.5,0.4,0.9,0.4,1.3s0.1,0.9,0.1,1.6s0,1.3-0.1,1.6
			c0,0.4-0.2,0.8-0.4,1.2c-0.2,0.5-0.7,0.8-1.3,1C186.2,40.6,185.4,40.7,184.4,40.7z M180.3,48.3c0-0.7,0-1.3,0.1-1.6
			c0-0.4,0.2-0.8,0.4-1.2c0.2-0.5,0.7-0.8,1.3-1s1.4-0.3,2.4-0.3c0.8,0,1.5,0.1,2,0.2s1,0.4,1.2,0.6c0.3,0.2,0.5,0.5,0.6,1
			c0.1,0.4,0.2,0.8,0.2,1.1c0,0.3,0,0.8,0,1.4v16.7c0,0.7,0,1.3-0.1,1.6c0,0.4-0.2,0.8-0.4,1.2c-0.2,0.5-0.7,0.8-1.3,1
			c-0.6,0.2-1.4,0.3-2.4,0.3s-1.8-0.1-2.4-0.3c-0.6-0.2-1-0.5-1.3-1c-0.2-0.5-0.4-0.9-0.4-1.2c0-0.3-0.1-0.9-0.1-1.7V48.3H180.3z"/>
		<path class="st1" d="M205.8,44.1c3.2,0,5.8,1.2,7.9,3.7c2.1,2.4,3.2,5.4,3.2,8.9v8.4c0,0.7,0,1.3-0.1,1.6c0,0.4-0.2,0.8-0.4,1.2
			c-0.2,0.5-0.7,0.8-1.3,1c-0.6,0.2-1.4,0.3-2.4,0.3c-0.8,0-1.5-0.1-2.1-0.2c-0.5-0.2-1-0.3-1.2-0.5s-0.5-0.5-0.6-1
			c-0.1-0.4-0.2-0.8-0.2-1.1c0-0.3,0-0.7,0-1.3v-8.4c0-1.3-0.4-2.3-1.1-3.1c-0.7-0.7-1.8-1.1-3-1.1s-2.3,0.4-3,1.1
			c-0.8,0.8-1.2,1.8-1.2,3V65c0,0.7,0,1.3-0.1,1.6c0,0.4-0.2,0.8-0.4,1.2c-0.2,0.5-0.7,0.8-1.3,1c-0.6,0.2-1.4,0.3-2.4,0.3
			s-1.8-0.1-2.4-0.3c-0.6-0.2-1-0.5-1.3-1c-0.2-0.5-0.4-0.9-0.4-1.3s-0.1-0.9-0.1-1.6V48c0-0.7,0-1.2,0.1-1.6c0-0.4,0.2-0.8,0.5-1.2
			c0.3-0.4,0.7-0.8,1.3-0.9c0.6-0.2,1.4-0.3,2.4-0.3s1.7,0.1,2.3,0.3c0.6,0.2,1,0.5,1.2,0.8c0.2,0.4,0.4,0.7,0.4,0.9
			c0,0.3,0.1,0.6,0.1,1c0.1-0.1,0.2-0.2,0.3-0.3c0.1-0.1,0.3-0.4,0.7-0.7c0.4-0.4,0.8-0.7,1.2-0.9c0.4-0.3,0.9-0.5,1.6-0.7
			C204.5,44.2,205.1,44.1,205.8,44.1z"/>
		<path class="st1" d="M240.7,32.4c1,0,1.8,0.1,2.4,0.3c0.6,0.2,1,0.5,1.3,1c0.2,0.5,0.4,0.9,0.4,1.3s0.1,0.9,0.1,1.6v28.5
			c0,0.7,0,1.3-0.1,1.6c0,0.4-0.2,0.8-0.5,1.2c-0.3,0.5-0.7,0.8-1.3,1c-0.6,0.2-1.4,0.3-2.4,0.3c-2.4,0-3.8-0.8-4-2.3
			c-1.3,1.5-3.2,2.3-5.6,2.3c-2.9,0-5.5-1.2-7.8-3.7c-2.4-2.5-3.5-5.4-3.5-8.9c0-3.2,1.2-6.1,3.6-8.6s5-3.8,7.8-3.8
			c2.4,0,4.2,0.8,5.5,2.4v-10c0-0.7,0-1.3,0.1-1.6s0.2-0.8,0.4-1.2c0.2-0.5,0.7-0.8,1.3-1S239.7,32.4,240.7,32.4z M229.2,59.6
			c0.8,0.9,1.8,1.3,3,1.3s2.2-0.4,2.9-1.3c0.8-0.9,1.2-1.8,1.2-2.9c0-1-0.4-2-1.1-2.9s-1.8-1.3-3-1.3s-2.3,0.4-3.1,1.3
			c-0.8,0.9-1.1,1.8-1.1,2.9S228.4,58.7,229.2,59.6z"/>
		<path class="st1" d="M272.3,53.5c0,2.1-0.5,3.6-1.5,4.6c-1,0.9-2,1.4-3.2,1.4h-11.3c0,0.9,0.5,1.6,1.6,2.2c1,0.6,2.2,0.9,3.4,0.9
			c0.9,0,1.7-0.1,2.4-0.2c0.8-0.1,1.3-0.3,1.7-0.4l0.5-0.2c0.8-0.3,1.4-0.5,1.9-0.5c1,0,1.9,0.7,2.6,2.1c0.4,0.9,0.6,1.6,0.6,2.2
			c0,2.8-3.4,4.2-10.2,4.2c-2.4,0-4.4-0.4-6.3-1.2c-1.9-0.8-3.3-1.9-4.3-3.2c-1-1.3-1.8-2.7-2.3-4.2s-0.7-3-0.7-4.5
			c0-4,1.3-7.2,3.9-9.6c2.6-2.4,5.8-3.6,9.7-3.6c1.6,0,3,0.2,4.3,0.6s2.4,1,3.2,1.7c0.9,0.7,1.6,1.5,2.2,2.4c0.6,0.9,1,1.8,1.3,2.6
			C272.2,51.8,272.3,52.7,272.3,53.5z M262.2,55.1c1.2,0,1.8-0.5,1.8-1.5c0-0.7-0.3-1.3-0.8-1.8c-0.6-0.4-1.4-0.7-2.4-0.7
			s-2,0.4-3.1,1.3c-1,0.8-1.5,1.7-1.5,2.7H262.2z"/>
		<path class="st1" d="M293.9,47.1c0,1.4-0.3,2.7-0.9,3.9c-0.6,1.2-1.5,1.8-2.6,1.8c-0.6,0-1.1-0.1-1.6-0.4s-1.1-0.4-1.6-0.4
			c-1.2,0-2.1,0.3-2.9,0.9c-0.7,0.6-1.1,1.3-1.1,2.2v10c0,0.7,0,1.3-0.1,1.6c0,0.4-0.2,0.8-0.5,1.2c-0.3,0.5-0.7,0.8-1.3,1
			s-1.4,0.3-2.4,0.3c-0.8,0-1.5-0.1-2-0.2c-0.6-0.2-1-0.3-1.2-0.6c-0.3-0.2-0.5-0.5-0.6-1c-0.1-0.4-0.2-0.8-0.2-1.1
			c0-0.3,0-0.8,0-1.4V48.1c0-0.7,0-1.3,0.1-1.6c0-0.4,0.2-0.8,0.4-1.2c0.2-0.5,0.7-0.8,1.3-1s1.4-0.3,2.4-0.3s1.7,0.1,2.3,0.3
			c0.6,0.2,1,0.5,1.2,0.8s0.4,0.6,0.4,0.8c0.1,0.2,0.1,0.5,0.1,0.8c0.2-0.2,0.4-0.5,0.7-0.8s0.9-0.7,1.9-1.3c1-0.5,2-0.8,3-0.8
			c0.5,0,1,0,1.5,0.1s1.1,0.2,1.7,0.4s1.1,0.5,1.5,1C293.7,45.8,293.9,46.4,293.9,47.1z"/>
	</g>
</g>
</svg>
